<svg xmlns="http://www.w3.org/2000/svg" width="200" height="200" viewBox="0 0 200 200">
  <style>
    .logo-icon { fill: #c3a47f; stroke: none; }
    .logo-scales { fill: #c3a47f; }
    .logo-wreath { fill: #c3a47f; }
  </style>
  
  <!-- Wreath -->
  <path class="logo-wreath" d="M100,20 C55.82,20 20,55.82 20,100 C20,144.18 55.82,180 100,180 C144.18,180 180,144.18 180,100 C180,55.82 144.18,20 100,20 Z M100,175 C58.58,175 25,141.42 25,100 C25,58.58 58.58,25 100,25 C141.42,25 175,58.58 175,100 C175,141.42 141.42,175 100,175 Z"/>
  
  <!-- Wreath Details - Left -->
  <path class="logo-wreath" d="M75,55 C65,65 60,75 55,90 C60,85 65,80 75,77 C70,82 65,90 63,100 C70,95 75,92 83,90 C78,97 76,105 75,115 C82,108 88,104 95,102 C92,110 90,118 90,125 C95,120 100,115 105,113 L105,40 C95,40 85,45 75,55 Z"/>
  
  <!-- Wreath Details - Right -->
  <path class="logo-wreath" d="M125,55 C135,65 140,75 145,90 C140,85 135,80 125,77 C130,82 135,90 137,100 C130,95 125,92 117,90 C122,97 124,105 125,115 C118,108 112,104 105,102 L105,40 C115,40 125,45 125,55 Z"/>
  
  <!-- Scales Balance -->
  <rect class="logo-icon" x="97.5" y="50" width="5" height="80"/>
  
  <!-- Scales Horizontal Bar -->
  <rect class="logo-scales" x="75" y="55" width="50" height="5"/>
  
  <!-- Scales Left Dish -->
  <ellipse class="logo-scales" cx="75" cy="70" rx="12" ry="4"/>
  <path class="logo-scales" d="M75,70 L85,55 L65,55 Z"/>
  
  <!-- Scales Right Dish -->
  <ellipse class="logo-scales" cx="125" cy="70" rx="12" ry="4"/>
  <path class="logo-scales" d="M125,70 L135,55 L115,55 Z"/>
  
  <!-- Base -->
  <path class="logo-scales" d="M85,130 L115,130 L115,135 L85,135 Z"/>
  <path class="logo-scales" d="M90,135 L110,135 L110,140 L90,140 Z"/>
</svg>