<?xml version="1.0" standalone="no"?>
<!DOCTYPE svg PUBLIC "-//W3C//DTD SVG 20010904//EN"
 "http://www.w3.org/TR/2001/REC-SVG-20010904/DTD/svg10.dtd">
<svg version="1.0" xmlns="http://www.w3.org/2000/svg"
 width="1498.000000pt" height="1498.000000pt" viewBox="0 0 1498.000000 1498.000000"
 preserveAspectRatio="xMidYMid meet">

<g transform="translate(0.000000,1498.000000) scale(0.100000,-0.100000)"
fill="#000000" stroke="none">
<path d="M7026 14769 c-643 -32 -1470 -202 -2135 -439 -701 -250 -1421 -652
-1980 -1104 -69 -56 -152 -123 -185 -150 -283 -230 -550 -496 -807 -806 -235
-283 -290 -352 -394 -500 -44 -63 -111 -157 -148 -210 -295 -411 -517 -848
-787 -1547 -84 -217 -170 -507 -230 -773 -15 -69 -44 -195 -63 -280 -59 -257
-107 -602 -136 -980 -34 -426 -28 -1044 13 -1355 3 -22 10 -78 16 -125 30
-234 115 -654 190 -941 125 -476 311 -972 515 -1374 253 -498 699 -1137 1112
-1592 276 -304 578 -595 798 -769 398 -314 641 -488 870 -622 317 -185 533
-294 805 -407 58 -24 156 -66 219 -94 62 -28 152 -63 200 -77 47 -14 169 -53
271 -86 255 -82 585 -172 764 -208 171 -35 779 -133 961 -156 164 -21 843 -30
1087 -15 701 44 1644 268 2358 560 203 83 672 313 895 439 179 101 495 324
726 513 63 52 158 128 211 169 144 113 551 484 649 591 99 109 333 389 500
599 371 466 756 1105 947 1570 172 417 324 936 413 1403 22 117 49 255 59 307
75 374 107 1184 65 1675 -39 457 -118 936 -210 1271 -20 71 -47 170 -60 219
-86 322 -245 761 -380 1050 -21 44 -63 136 -95 205 -101 222 -345 641 -539
925 -269 393 -675 867 -999 1167 -192 178 -299 269 -467 395 -77 58 -189 145
-250 193 -167 131 -277 203 -546 358 -610 349 -1108 560 -1774 751 -303 87
-800 177 -1220 221 -360 38 -838 49 -1239 29z m616 -821 c191 -101 303 -306
271 -495 -13 -76 -70 -198 -132 -285 -71 -98 -181 -135 -351 -117 -137 14
-186 40 -237 127 -18 30 -24 51 -20 71 5 24 0 36 -28 65 -49 52 -75 143 -75
261 0 56 6 109 15 135 34 95 149 213 252 256 51 22 69 24 150 20 80 -4 100 -9
155 -38z m1403 -282 c136 -63 160 -192 57 -295 -74 -73 -150 -89 -218 -45 -91
59 -117 152 -69 249 52 107 131 138 230 91z m-2961 -10 c78 -32 146 -119 146
-184 0 -45 -48 -131 -89 -157 -81 -53 -145 -40 -225 45 -75 80 -83 159 -25
240 47 65 120 86 193 56z m4225 -131 c377 -50 656 -180 891 -415 214 -213 299
-381 411 -810 20 -77 28 -91 79 -145 50 -54 93 -108 114 -143 11 -19 -141 53
-215 102 -77 52 -148 88 -204 106 -22 7 -67 24 -100 38 -33 13 -136 53 -230
87 -93 34 -199 76 -235 92 -153 70 -339 214 -541 420 -135 137 -191 211 -309
408 -30 49 -82 127 -117 172 -34 46 -65 87 -68 93 -10 16 393 12 524 -5z
m-5145 -7 c-4 -7 -28 -40 -54 -73 -26 -33 -80 -109 -120 -170 -216 -323 -361
-511 -463 -598 -107 -91 -288 -196 -442 -258 -44 -17 -114 -48 -155 -69 -41
-21 -118 -56 -170 -78 -156 -67 -302 -136 -345 -162 -22 -14 -74 -54 -115 -90
-41 -36 -106 -90 -143 -120 -37 -30 -79 -69 -93 -88 -14 -18 -28 -31 -31 -28
-8 7 46 81 147 201 51 61 101 124 111 140 26 40 58 128 120 325 68 216 122
337 215 478 129 196 312 358 505 446 134 61 263 104 369 125 148 28 138 28
418 30 200 1 252 -2 246 -11z m4315 -103 c39 -33 68 -107 54 -138 -20 -42 -64
-86 -99 -97 -33 -11 -38 -10 -66 16 -37 35 -67 98 -68 140 0 47 66 102 127
103 12 1 35 -10 52 -24z m-3826 -28 c39 -47 41 -92 7 -135 -30 -38 -61 -48
-98 -33 -39 17 -64 57 -66 103 -1 34 5 45 37 75 49 44 79 42 120 -10z m-2413
-349 c0 -13 -9 -70 -19 -128 -11 -58 -24 -168 -31 -245 -17 -217 -29 -291 -71
-419 -64 -195 -151 -347 -332 -578 -72 -91 -123 -191 -153 -295 -27 -94 -106
-237 -314 -573 -29 -47 -59 -100 -67 -119 -31 -73 -21 -17 21 111 53 163 148
355 215 431 95 108 128 185 161 372 10 61 53 216 94 345 73 230 136 446 136
468 0 6 -6 9 -14 6 -17 -7 -58 -95 -139 -304 -83 -214 -119 -327 -151 -476
-31 -148 -92 -374 -105 -387 -11 -11 -38 102 -53 223 -15 118 -15 460 0 537
16 81 87 294 119 358 39 77 98 161 184 260 87 101 144 152 304 277 61 47 128
102 150 121 47 42 65 46 65 15z m8609 -75 c114 -67 252 -175 330 -259 195
-208 295 -393 346 -636 25 -115 38 -442 24 -568 -6 -58 -14 -132 -18 -165 -6
-51 -8 -57 -18 -40 -6 11 -25 79 -43 150 -44 185 -133 458 -192 594 -53 121
-168 330 -193 351 -27 22 -18 -13 49 -192 35 -95 69 -191 76 -213 7 -22 39
-100 72 -174 82 -186 127 -319 147 -436 21 -119 20 -117 127 -265 45 -63 98
-144 118 -180 33 -62 141 -358 133 -366 -2 -3 -33 49 -68 113 -35 65 -86 147
-112 182 -27 35 -75 103 -107 150 -31 47 -87 124 -124 170 -37 47 -76 101 -86
120 -34 68 -230 184 -480 284 -181 72 -280 98 -572 146 -37 6 -82 14 -100 18
-33 6 -33 6 -15 -14 18 -21 67 -38 352 -123 279 -83 422 -134 525 -185 58 -28
131 -62 162 -74 61 -24 97 -56 82 -71 -5 -5 -55 -5 -124 0 -63 5 -207 14 -320
20 -497 24 -658 93 -1008 434 -81 78 -169 159 -195 180 -26 22 -44 43 -40 47
16 16 299 41 473 42 201 2 281 -11 437 -69 118 -43 358 -176 467 -258 73 -55
111 -92 257 -249 45 -48 63 -60 109 -71 30 -8 55 -14 56 -13 1 1 -20 38 -46
82 -26 44 -69 118 -97 165 -27 47 -73 119 -103 160 -260 363 -308 481 -364
885 -27 196 -37 247 -66 344 -11 35 -20 67 -20 72 0 10 17 1 169 -88z m-4244
-23 c49 -6 93 -14 97 -18 4 -4 8 -29 10 -57 l3 -50 -45 1 c-132 4 -366 26
-377 36 -14 11 -17 55 -7 82 5 13 25 16 118 16 61 0 151 -5 201 -10z m635
-130 c25 -25 40 -62 40 -100 0 -54 -106 -94 -149 -56 -53 48 -48 117 13 156
40 25 71 25 96 0z m-1485 -53 c19 -22 35 -46 35 -53 0 -7 3 -20 6 -28 4 -11
-8 -30 -34 -56 -52 -52 -90 -54 -138 -6 -47 47 -49 103 -6 150 52 55 85 54
137 -7z m922 -10 l48 -12 0 -55 0 -55 -98 2 c-87 1 -293 25 -339 39 -24 7 -24
67 -1 90 15 15 34 16 180 10 89 -4 184 -13 210 -19z m905 1 c73 -60 60 -161
-27 -202 -44 -21 -65 -15 -104 30 -37 42 -39 69 -8 111 49 67 102 90 139 61z
m-2215 -39 c60 -29 88 -83 73 -139 -12 -44 -62 -100 -90 -100 -27 0 -90 58
-106 97 -23 53 -18 97 15 132 34 37 50 38 108 10z m2597 -100 c42 -49 36 -93
-19 -146 -54 -51 -86 -62 -121 -38 -27 17 -54 70 -54 105 0 37 96 109 147 110
12 0 32 -13 47 -31z m-2944 -45 c61 -48 74 -74 60 -123 -5 -21 -21 -50 -35
-65 l-25 -27 -41 23 c-43 24 -92 78 -103 115 -13 40 42 113 84 113 8 0 35 -16
60 -36z m1515 5 c136 -19 186 -31 195 -50 16 -28 12 -99 -5 -105 -15 -6 -275
20 -390 39 -67 11 -70 13 -73 41 -2 16 -1 45 3 64 l6 35 97 -7 c53 -4 129 -11
167 -17z m1762 -116 c31 -34 43 -64 43 -108 0 -25 -8 -40 -35 -64 -76 -66
-175 -25 -175 72 1 46 8 58 58 100 43 35 76 35 109 0z m-3606 -26 c75 -50 101
-136 58 -191 -26 -33 -49 -33 -101 0 -62 40 -88 72 -88 111 0 44 14 69 48 87
36 20 44 20 83 -7z m1760 -53 c156 -17 266 -37 279 -50 14 -16 18 -115 5 -120
-19 -8 -448 46 -462 58 -8 6 -13 34 -13 69 0 70 -17 66 191 43z m2210 -113
c77 -82 55 -161 -54 -192 -56 -16 -117 40 -117 106 0 34 33 81 74 106 43 27
54 24 97 -20z m-4298 -2 c12 -6 37 -25 55 -42 24 -24 32 -39 32 -66 0 -45 -32
-99 -64 -107 -59 -15 -156 74 -156 143 0 65 71 104 133 72z m1450 -204 c20
-60 59 -186 87 -279 28 -93 69 -212 92 -265 38 -91 70 -181 63 -181 -6 0 -54
107 -112 250 -46 112 -194 591 -193 625 1 21 29 -45 63 -150z m1461 93 c-11
-85 -65 -288 -105 -399 -23 -63 -68 -190 -100 -284 -35 -103 -58 -158 -58
-140 0 17 40 152 89 300 50 149 102 320 116 380 15 61 31 127 36 148 12 51 30
48 22 -5z m-834 17 c256 -18 300 -35 300 -119 0 -25 -4 -48 -10 -51 -5 -3 -51
1 -102 9 -51 9 -140 23 -198 31 -147 21 -166 29 -174 67 -3 17 -6 37 -6 45 0
18 38 33 75 28 17 -2 68 -7 115 -10z m2550 -102 c16 -9 37 -31 46 -49 17 -30
16 -33 -2 -65 -45 -76 -137 -103 -187 -54 -34 35 -41 69 -21 110 31 66 106 93
164 58z m-4912 -18 c37 -31 66 -90 58 -119 -8 -33 -45 -76 -74 -87 -54 -21
-152 58 -152 123 0 16 15 41 40 67 48 49 84 54 128 16z m-2962 -87 c0 -71 8
-143 27 -231 83 -400 79 -711 -13 -982 -58 -171 -108 -377 -115 -473 -8 -102
-33 -183 -175 -557 -84 -222 -119 -336 -161 -535 -17 -80 -34 -155 -36 -167
-3 -13 -8 -23 -12 -23 -4 0 -8 -21 -9 -47 -2 -27 -13 -109 -27 -183 -48 -264
-56 -338 -66 -615 -14 -337 2 -1177 26 -1374 51 -439 78 -563 211 -981 100
-316 104 -327 257 -645 200 -416 405 -764 577 -975 20 -25 64 -85 98 -135 33
-49 86 -119 116 -155 31 -36 104 -126 162 -200 200 -252 374 -436 569 -600 77
-65 154 -132 170 -150 77 -82 260 -217 690 -505 218 -146 318 -206 450 -270
147 -72 459 -196 663 -265 35 -11 120 -44 190 -72 70 -28 245 -91 390 -139
205 -69 307 -98 461 -128 235 -48 540 -134 671 -191 51 -23 160 -61 240 -84
97 -28 175 -59 231 -89 46 -26 77 -47 68 -47 -9 0 -71 -27 -139 -60 -79 -39
-126 -57 -134 -51 -6 5 -85 47 -176 94 -167 87 -439 197 -585 237 -44 12 -141
41 -215 65 -74 24 -234 71 -355 105 -121 34 -252 74 -291 90 -39 15 -106 38
-150 50 -43 12 -146 50 -229 85 -82 35 -202 84 -265 108 -63 25 -155 64 -205
87 -49 23 -130 60 -179 82 -138 61 -167 78 -636 383 -74 48 -175 118 -225 155
-49 36 -153 111 -230 164 -125 88 -170 129 -413 374 -272 274 -458 482 -610
682 -109 142 -356 493 -431 610 -269 423 -367 601 -442 798 -33 86 -87 226
-121 311 -69 177 -172 493 -193 596 -16 74 -69 489 -80 615 -3 41 -12 145 -20
230 -34 381 -39 438 -37 490 1 30 11 255 22 500 26 560 55 790 131 1045 22 72
53 193 70 270 68 314 111 458 213 716 100 255 99 253 104 609 2 222 -1 369
-12 499 -14 174 -28 236 -40 180 -12 -53 -27 -288 -36 -544 -11 -326 -17 -411
-36 -535 -7 -52 -14 -101 -14 -107 0 -31 -20 -8 -47 55 -40 88 -86 231 -135
422 -36 139 -41 171 -45 310 -5 136 -3 171 17 270 48 244 170 527 296 685 39
49 214 245 219 245 0 0 0 -46 1 -102z m10800 11 c44 -50 103 -119 132 -152
151 -176 270 -433 318 -692 20 -107 22 -321 5 -445 -20 -145 -135 -573 -161
-603 -13 -15 -38 68 -54 174 -8 57 -20 199 -26 314 -12 241 -23 352 -51 516
-10 64 -19 128 -19 142 0 30 -18 46 -30 26 -12 -18 -12 -366 0 -545 10 -168
44 -436 66 -530 20 -89 50 -182 105 -332 44 -120 84 -268 149 -551 20 -89 40
-313 26 -300 -3 3 -22 84 -42 179 -39 190 -73 295 -189 595 -96 249 -178 525
-161 542 3 3 15 -2 26 -12 19 -17 20 -17 20 -1 0 35 -51 170 -104 274 -62 121
-93 220 -127 402 -20 106 -24 156 -23 330 0 175 3 222 24 325 18 94 24 154 24
277 1 87 4 158 7 158 4 0 42 -41 85 -91z m-6511 -19 c72 -112 434 -844 423
-856 -3 -3 -63 115 -283 556 -115 231 -180 342 -217 368 -10 7 -16 18 -12 23
9 15 42 -18 89 -91z m2380 -36 c-15 -49 -60 -174 -101 -279 -42 -104 -90 -226
-107 -270 -17 -44 -50 -114 -73 -156 -23 -41 -51 -96 -63 -122 -22 -49 -38
-64 -25 -24 4 12 26 60 48 107 50 101 67 142 116 280 20 58 64 170 97 250 33
80 75 185 94 234 41 110 48 100 14 -20z m-4391 65 c22 -8 41 -19 43 -25 2 -6
-29 -36 -70 -66 -40 -31 -116 -99 -168 -153 -181 -187 -336 -287 -549 -358
-193 -64 -327 -82 -629 -86 -90 -1 -200 -8 -245 -16 -111 -20 -106 -21 -106
27 0 29 9 55 30 88 72 113 331 319 546 435 137 74 348 148 465 164 114 15 635
7 683 -10z m3021 -9 c131 -11 278 -36 307 -51 14 -8 18 -22 18 -68 0 -32 -2
-60 -5 -62 -4 -5 -154 17 -339 51 -61 10 -116 26 -125 34 -19 20 -20 84 0 97
17 11 1 11 144 -1z m-1148 -410 c44 -74 111 -184 148 -245 116 -187 144 -239
150 -275 6 -34 5 -33 -21 15 -23 43 -142 239 -275 450 -80 128 -199 366 -199
397 0 7 27 -36 58 -97 32 -60 95 -171 139 -245z m3073 255 c0 -11 -41 -85 -95
-175 -30 -50 -55 -93 -55 -95 0 -14 -129 -212 -176 -270 -67 -83 -148 -205
-195 -294 -18 -35 -35 -58 -37 -52 -8 25 70 162 165 289 101 135 161 229 301
469 67 115 92 150 92 128z m960 -10 c33 -17 70 -72 70 -105 0 -34 -36 -86 -70
-100 -39 -16 -92 -6 -130 26 -25 22 -30 33 -30 71 0 39 5 51 39 84 42 43 73
49 121 24z m-5505 -42 c26 -27 35 -45 35 -70 0 -47 -24 -88 -59 -103 -41 -16
-73 -7 -121 36 -40 36 -56 78 -45 114 10 31 64 60 112 60 35 0 48 -6 78 -37z
m930 -103 c39 -52 100 -140 136 -195 36 -55 119 -174 185 -265 125 -172 194
-272 194 -284 0 -35 -73 57 -254 319 -76 110 -152 218 -167 240 -63 87 -199
292 -199 299 0 17 35 -22 105 -114z m1740 104 c156 -20 257 -42 266 -56 7 -10
1 -107 -6 -116 -4 -5 -217 26 -335 48 -118 22 -130 31 -130 97 l0 43 43 0 c24
0 97 -7 162 -16z m-4487 -54 c-7 -11 -17 -20 -22 -20 -5 0 -1 9 9 20 10 11 20
20 22 20 2 0 -2 -9 -9 -20z m4552 -165 c209 -25 197 -22 204 -61 11 -57 -6
-74 -72 -74 -103 0 -384 29 -398 41 -17 14 -18 60 -1 81 24 31 90 34 267 13z
m-3024 -57 c15 -15 28 -41 31 -65 14 -104 -99 -172 -177 -107 -106 89 -65 211
68 201 40 -3 60 -10 78 -29z m6118 11 c63 -49 75 -136 27 -188 -25 -26 -36
-31 -76 -31 -40 0 -52 5 -81 34 -28 28 -34 41 -34 78 0 50 18 81 64 109 40 24
67 24 100 -2z m-795 -180 c-12 -17 -63 -65 -113 -107 -91 -76 -294 -276 -414
-408 -35 -38 -54 -55 -42 -39 54 76 322 363 394 423 44 37 105 88 135 115 30
26 56 47 58 47 3 0 -6 -14 -18 -31z m-2179 1 c83 -13 184 -48 211 -73 15 -14
19 -29 17 -55 -3 -37 -3 -37 -53 -40 -27 -2 -102 4 -165 13 -159 23 -243 21
-395 -11 -182 -38 -168 -41 -171 39 -3 82 -6 79 149 112 124 26 294 32 407 15z
m-2322 -137 c81 -71 189 -163 239 -206 77 -67 167 -170 198 -227 5 -8 -47 42
-116 111 -68 69 -167 163 -219 209 -104 91 -262 240 -255 240 2 0 71 -57 153
-127z m-1144 18 c78 -49 93 -161 26 -196 -68 -35 -145 -5 -182 69 -21 44 -21
44 -2 77 20 35 74 69 108 69 10 0 33 -9 50 -19z m6737 -11 c41 -22 63 -106 39
-151 -28 -50 -145 -65 -191 -23 -18 16 -20 27 -16 68 4 41 11 55 41 83 38 35
87 44 127 23z m-706 -106 c-16 -14 -79 -70 -140 -123 -60 -54 -144 -125 -185
-158 -41 -34 -122 -104 -180 -156 -57 -53 -107 -93 -110 -90 -7 7 108 113 240
221 58 47 139 116 180 153 81 74 211 179 220 179 3 0 -8 -12 -25 -26z m-2598
-43 c125 -38 257 -63 408 -76 297 -26 548 -82 814 -181 186 -70 300 -126 579
-286 271 -156 444 -230 632 -268 146 -30 260 -26 317 12 53 35 95 117 96 187
1 60 -36 116 -86 129 -50 14 -64 -5 -43 -57 36 -92 7 -151 -75 -151 -31 0 -48
8 -80 37 -65 59 -88 124 -70 205 25 113 196 178 350 132 97 -29 186 -136 201
-243 20 -140 -27 -269 -131 -366 -136 -125 -386 -166 -649 -106 -135 31 -490
153 -743 255 -127 51 -272 107 -322 124 -262 89 -669 141 -885 113 -109 -14
-173 -45 -318 -156 -62 -47 -120 -85 -129 -85 -8 0 -47 29 -84 65 -80 75 -152
114 -276 151 -174 51 -361 43 -703 -30 -259 -54 -458 -119 -740 -241 -209 -90
-480 -179 -610 -200 -154 -25 -308 -23 -390 5 -153 52 -277 142 -325 235 -28
55 -30 66 -30 169 1 131 19 182 90 244 155 137 359 117 447 -43 42 -77 34
-165 -21 -224 -27 -29 -34 -31 -99 -31 -64 0 -72 2 -91 26 -30 38 -28 98 4
128 29 27 31 39 11 55 -36 30 -135 -43 -155 -113 -23 -85 56 -187 177 -227 88
-29 232 -23 342 14 116 39 345 147 485 229 69 40 167 97 217 126 264 153 869
330 1235 362 166 14 214 25 360 75 70 25 135 45 143 45 9 0 75 -18 147 -39z
m-4232 0 c94 -5 186 -6 205 -4 l35 5 -51 -53 c-28 -30 -83 -97 -121 -149 -147
-197 -279 -318 -434 -396 -127 -63 -223 -100 -341 -129 -106 -26 -345 -96
-502 -146 -49 -16 -91 -27 -93 -26 -8 9 35 52 88 88 34 22 113 94 177 159
l117 117 220 106 c312 151 349 171 344 182 -19 44 -372 -87 -548 -203 -88 -58
-257 -226 -374 -372 -26 -32 -28 -33 -24 -10 9 48 135 310 180 373 110 153
303 328 422 382 136 62 317 97 460 88 39 -2 147 -7 240 -12z m8679 -15 c111
-29 234 -86 344 -159 51 -34 96 -78 152 -145 44 -54 107 -127 139 -165 55 -62
171 -270 159 -283 -3 -2 -23 18 -44 46 -69 90 -304 271 -440 339 -142 71 -464
164 -464 134 0 -26 64 -66 172 -106 114 -43 439 -218 573 -308 157 -106 218
-163 239 -226 9 -25 14 -48 13 -50 -2 -1 -28 10 -58 26 -139 75 -296 129 -587
200 -150 37 -273 90 -378 162 -95 65 -245 207 -327 309 -34 41 -89 106 -124
144 -34 39 -61 72 -58 74 3 3 51 13 107 23 81 14 144 17 293 15 166 -3 203 -7
289 -30z m-6939 -176 c66 -46 147 -103 179 -128 75 -58 188 -163 181 -170 -2
-3 -24 13 -47 34 -58 54 -195 158 -298 229 -84 57 -138 101 -235 190 -41 38
-36 36 25 -13 42 -33 130 -97 195 -142z m6056 11 c28 -28 39 -47 39 -69 0 -43
-51 -99 -101 -112 -136 -37 -176 120 -51 202 42 28 70 22 113 -21z m-7231 13
c79 -32 104 -108 51 -158 -34 -33 -99 -58 -121 -46 -34 18 -110 110 -110 133
0 23 40 69 70 80 29 10 70 7 110 -9z m-2657 -149 c19 -44 68 -152 109 -240 85
-182 122 -279 169 -450 30 -111 33 -131 33 -265 0 -109 -7 -188 -28 -320 -15
-96 -29 -177 -31 -181 -2 -3 -11 -77 -20 -164 -16 -163 -34 -234 -35 -140 0
58 -24 228 -45 333 -9 40 -29 163 -45 273 -23 155 -40 231 -76 339 -25 77 -48
140 -51 140 -9 0 5 -268 22 -410 8 -69 30 -204 49 -300 38 -197 81 -498 72
-508 -14 -14 -60 52 -146 211 -186 345 -233 460 -260 629 -17 103 -8 421 15
547 30 167 88 330 174 494 23 43 41 85 41 94 0 27 15 4 53 -82z m12441 -24
c175 -260 255 -545 243 -863 -9 -238 -48 -358 -209 -638 -52 -91 -115 -203
-141 -250 -25 -47 -53 -94 -62 -105 -15 -19 -16 -14 -11 70 3 50 31 227 61
395 31 168 62 364 70 435 8 72 19 166 24 210 5 44 8 82 6 83 -2 2 -15 -18 -28
-45 -116 -229 -207 -887 -186 -1348 15 -321 37 -638 53 -735 34 -216 38 -322
22 -563 -9 -125 -23 -276 -30 -335 -8 -59 -20 -183 -26 -277 -15 -223 -36
-421 -56 -520 -14 -69 -119 -358 -215 -593 -16 -40 -50 -136 -75 -214 -59
-182 -159 -409 -243 -551 -37 -62 -84 -143 -105 -182 -22 -38 -71 -117 -110
-175 -38 -58 -104 -159 -145 -225 -123 -195 -284 -423 -378 -535 -48 -58 -112
-136 -142 -175 -144 -185 -520 -576 -682 -708 -52 -42 -134 -111 -184 -153
-152 -127 -885 -607 -1057 -691 -376 -184 -1082 -441 -1580 -574 -163 -43
-371 -104 -462 -134 -91 -30 -180 -55 -198 -54 -37 0 -181 68 -181 84 1 6 21
16 45 23 23 7 111 35 193 61 83 27 215 63 295 80 298 66 439 104 614 166 100
35 276 97 391 138 116 40 271 98 345 129 74 30 196 79 270 108 193 75 376 170
605 316 191 121 447 304 565 404 150 127 291 241 345 280 76 55 271 245 384
375 150 172 437 540 543 697 36 53 90 124 120 158 67 76 170 239 250 395 33
66 87 163 118 215 78 130 93 159 175 360 40 96 93 225 118 285 25 61 64 155
86 210 21 55 57 141 80 192 57 129 107 330 136 543 9 69 25 186 36 260 11 74
33 266 50 425 16 160 34 319 39 355 11 85 -3 243 -45 503 -8 51 -27 202 -42
337 -23 217 -26 290 -28 635 -1 215 -7 442 -13 505 -15 145 -15 272 -2 380 18
144 67 338 116 454 93 224 115 290 132 392 12 79 19 101 28 93 7 -6 42 -54 78
-108z m-10024 -141 c51 -26 90 -69 90 -98 0 -51 -59 -102 -118 -102 -22 0 -40
11 -70 44 -50 54 -59 84 -38 124 29 56 71 65 136 32z m7674 -9 c41 -26 69 -74
60 -104 -15 -51 -82 -97 -142 -97 -32 0 -75 39 -91 83 -13 35 4 72 49 111 38
31 80 34 124 7z m-4681 -215 c30 -58 47 -96 41 -96 -8 0 -94 138 -94 150 0 21
29 -10 53 -54z m439 -63 c154 -164 211 -324 267 -758 7 -52 12 -791 16 -2090
2 -1105 9 -2284 15 -2620 6 -335 15 -1001 20 -1480 5 -478 13 -890 18 -915 7
-40 8 -42 15 -20 26 83 43 1575 57 4900 6 1207 14 2218 18 2245 5 28 19 111
31 185 42 258 45 265 131 411 44 74 93 146 110 162 34 30 71 35 90 12 13 -16
13 -43 -10 -415 -32 -510 -49 -1251 -69 -3050 -6 -470 -15 -974 -21 -1120 -31
-797 -41 -1099 -45 -1320 -5 -249 -15 -440 -40 -815 -8 -115 -19 -329 -25
-475 -10 -276 -25 -416 -59 -561 -39 -165 -93 -344 -134 -442 l-42 -99 -28 64
c-49 110 -123 391 -161 613 -42 246 -62 607 -86 1520 -5 204 -14 447 -20 540
-34 585 -48 1098 -55 2120 -8 1155 -29 2134 -55 2615 -17 322 -34 723 -33 774
3 95 19 98 95 19z m1113 -8 c-10 -25 -20 -43 -23 -41 -2 3 0 18 6 33 5 15 13
37 16 47 4 10 9 16 12 13 3 -3 -2 -26 -11 -52z m434 -2 c-43 -74 -186 -259
-245 -318 -66 -67 -281 -274 -273 -263 47 64 185 208 201 208 8 0 219 264 277
348 48 67 77 85 40 25z m2894 -31 c37 -35 37 -80 -3 -125 -37 -42 -76 -59
-126 -55 -32 2 -43 10 -66 43 -15 22 -27 46 -28 53 0 23 74 92 114 106 47 16
73 11 109 -22z m-8044 8 c45 -23 91 -74 91 -101 0 -11 -15 -35 -33 -55 -24
-26 -43 -37 -73 -41 -40 -5 -45 -3 -98 49 -31 30 -56 62 -56 72 0 10 17 36 39
57 44 45 72 49 130 19z m4691 -45 c0 -8 -4 -15 -10 -15 -5 0 -7 7 -4 15 4 8 8
15 10 15 2 0 4 -7 4 -15z m-20 -55 c0 -5 -5 -10 -11 -10 -5 0 -7 5 -4 10 3 6
8 10 11 10 2 0 4 -4 4 -10z m3819 -16 c384 -61 425 -70 533 -115 84 -34 208
-107 282 -165 60 -47 171 -180 224 -268 115 -189 241 -592 230 -736 l-3 -45
-29 75 c-100 259 -258 502 -409 629 -122 101 -406 286 -429 279 -6 -2 55 -69
137 -149 403 -390 437 -427 530 -569 104 -157 144 -235 179 -344 36 -110 32
-121 -15 -46 -23 36 -55 80 -72 99 -46 48 -169 140 -284 212 -213 135 -311
205 -406 293 -217 199 -327 353 -461 644 -21 46 -57 111 -80 145 -62 92 -62
92 -41 83 11 -4 62 -14 114 -22z m-8945 -16 c-5 -7 -19 -29 -32 -48 -13 -19
-49 -84 -79 -145 -119 -235 -267 -449 -393 -568 -108 -102 -190 -162 -350
-256 -254 -150 -330 -203 -427 -298 -51 -51 -98 -93 -103 -93 -32 0 22 134
112 281 116 187 182 260 478 529 107 98 211 194 230 214 l35 37 -28 -10 c-84
-32 -289 -168 -383 -254 -114 -105 -280 -331 -363 -494 -30 -61 -62 -99 -41
-51 5 13 23 91 40 174 46 229 81 319 184 479 112 172 238 285 411 370 127 63
176 75 455 114 242 34 264 36 254 19z m2649 -9 c12 -7 40 -26 63 -45 53 -42
151 -110 266 -181 118 -74 113 -71 107 -78 -12 -11 -195 103 -361 226 -43 32
-87 60 -98 64 -21 7 -28 25 -9 25 6 0 20 -5 32 -11z m3426 -52 c-52 -48 -85
-76 -116 -97 -11 -8 -36 -26 -55 -39 -28 -19 -27 -18 7 13 22 20 47 42 55 49
9 6 44 36 79 65 75 62 94 68 30 9z m-5796 -131 c37 -15 84 -66 93 -101 3 -13
1 -33 -6 -45 -14 -27 -68 -60 -98 -60 -26 0 -127 90 -138 122 -7 23 23 59 70
82 38 19 39 19 79 2z m8382 -11 c31 -30 36 -85 13 -132 -27 -53 -156 -73 -196
-30 -32 34 -39 83 -16 108 42 47 98 75 157 78 10 1 29 -10 42 -24z m-1878 -61
c36 -30 43 -41 39 -60 -6 -22 -98 -247 -286 -694 -157 -375 -249 -599 -315
-770 -149 -382 -178 -459 -217 -570 -22 -63 -69 -182 -104 -265 -35 -82 -83
-199 -107 -260 l-43 -110 -58 -3 c-33 -2 -63 1 -68 6 -5 5 20 75 63 173 102
235 146 344 244 604 48 127 104 275 125 330 87 228 338 845 479 1180 106 248
181 439 181 458 0 26 19 21 67 -19z m-4949 -31 c7 -3 11 -11 8 -17 -3 -6 -32
-76 -64 -156 -57 -139 -149 -356 -244 -580 -25 -58 -64 -157 -88 -220 -24 -63
-72 -187 -107 -275 -36 -88 -107 -272 -159 -410 -52 -137 -110 -286 -129 -330
-36 -87 -165 -429 -222 -590 -20 -55 -40 -105 -47 -112 -6 -6 -36 -13 -66 -15
-44 -2 -55 0 -58 13 -2 9 25 86 59 170 151 379 254 645 298 774 27 77 74 202
105 278 32 77 75 187 96 245 21 59 56 145 78 192 22 47 58 137 80 200 22 63
63 166 92 229 28 63 71 166 96 230 76 191 156 375 172 393 13 16 17 16 51 2
20 -9 42 -18 49 -21z m260 24 c11 -13 72 -155 169 -392 25 -60 56 -131 69
-157 14 -27 44 -106 69 -176 45 -131 134 -358 185 -472 16 -36 50 -121 76
-190 25 -69 57 -145 69 -170 38 -75 139 -324 269 -665 13 -33 38 -96 56 -140
17 -44 47 -124 66 -179 18 -54 43 -114 54 -133 11 -19 20 -38 20 -43 0 -9
-128 -26 -136 -17 -3 3 -12 31 -21 64 -8 32 -32 99 -53 148 -22 50 -58 140
-81 200 -96 258 -122 324 -233 600 -64 160 -127 319 -140 355 -13 36 -52 133
-86 215 -35 83 -80 195 -100 250 -20 55 -65 168 -100 250 -35 83 -89 218 -121
300 -31 83 -66 173 -77 200 -12 28 -26 65 -33 83 -20 56 -34 31 -41 -79 -4
-57 -8 -663 -8 -1346 0 -684 -4 -1243 -8 -1244 -4 0 -28 -2 -53 -4 l-47 -2 -6
571 c-11 1013 -11 1245 3 1601 7 193 16 393 19 445 l7 95 60 3 c33 2 67 9 75
16 30 27 63 32 78 13z m5927 -5 c-22 -10 -94 -38 -160 -61 -177 -63 -324 -118
-459 -172 -145 -59 -178 -64 -46 -8 52 23 115 50 140 61 25 12 133 51 240 88
107 38 218 77 245 88 63 25 94 28 40 4z m-1636 -6 c-13 -12 -179 -93 -179 -87
0 7 159 89 174 90 5 1 7 -1 5 -3z m747 -126 c29 -69 113 -276 189 -460 76
-184 166 -405 200 -490 35 -85 90 -218 122 -295 33 -77 90 -221 127 -320 111
-300 196 -512 272 -680 76 -170 138 -334 129 -343 -3 -3 -32 -8 -64 -10 l-59
-4 -22 73 c-12 41 -42 117 -65 169 -24 52 -62 146 -84 208 -22 62 -62 163 -89
225 -27 61 -73 175 -102 252 -121 325 -181 477 -208 532 -16 32 -33 69 -37 83
-19 64 -140 361 -166 407 -30 52 -98 224 -166 418 -51 145 -122 312 -140 327
-13 10 -11 14 18 25 19 6 48 11 64 10 29 -2 32 -8 81 -127z m-185 103 c0 -5 3
-17 5 -28 15 -64 23 -650 22 -1597 l-1 -1078 -53 0 -53 0 -3 973 c-2 534 -2
1144 0 1355 l3 382 39 0 c22 0 40 -3 41 -7z m-6091 -13 c8 -5 11 -10 5 -10 -5
0 -17 5 -25 10 -8 5 -10 10 -5 10 6 0 17 -5 25 -10z m77 -25 c124 -48 494
-174 528 -179 22 -4 47 -11 55 -16 24 -15 -57 0 -145 27 -71 22 -370 130 -465
168 -19 8 -29 14 -23 14 7 1 30 -6 50 -14z m1671 -15 c22 -11 45 -20 51 -20 5
0 94 -42 198 -94 103 -51 209 -103 234 -114 53 -24 355 -173 518 -256 191 -97
112 -78 -109 26 -129 61 -254 123 -485 242 -192 99 -370 181 -452 209 -18 5
-33 14 -33 19 0 14 35 9 78 -12z m3577 -30 c-3 -5 -12 -10 -18 -10 -7 0 -6 4
3 10 19 12 23 12 15 0z m-35 -20 c0 -5 -8 -10 -18 -10 -10 0 -22 -4 -27 -9 -6
-5 -21 -12 -35 -15 -14 -4 -5 4 20 18 50 28 60 31 60 16z m2648 -165 c32 -38
29 -78 -11 -121 -28 -31 -42 -37 -85 -42 -47 -4 -54 -2 -82 26 -39 39 -39 72
2 118 60 68 126 75 176 19z m-8601 -1 c70 -54 76 -87 23 -143 -24 -27 -35 -31
-79 -31 -46 0 -56 4 -96 41 -28 26 -45 50 -45 64 0 50 80 110 134 100 16 -3
44 -17 63 -31z m6218 -63 c-9 -7 -101 -41 -113 -41 -14 0 11 13 59 30 62 22
66 23 54 11z m4786 -170 c124 -391 106 -805 -50 -1126 -66 -135 -154 -257
-286 -395 -61 -63 -141 -150 -179 -193 -37 -42 -72 -75 -77 -71 -23 14 41 236
116 404 23 52 57 140 75 195 18 55 49 136 68 180 52 122 134 355 140 400 l4
40 -22 -20 c-27 -24 -168 -310 -243 -495 -41 -100 -66 -183 -96 -320 -23 -102
-44 -196 -48 -210 -11 -42 -31 229 -32 429 -2 298 37 478 151 705 62 125 100
181 217 321 51 61 118 149 149 198 31 48 60 86 65 84 5 -1 27 -58 48 -126z
m-13556 87 c10 -18 64 -78 119 -133 170 -169 351 -447 411 -630 54 -167 66
-271 72 -635 3 -184 2 -332 -2 -328 -3 3 -13 32 -21 65 -36 139 -189 588 -225
660 -50 97 -155 267 -180 289 -17 15 -19 15 -19 1 0 -9 20 -85 44 -169 41
-144 98 -291 203 -523 25 -55 67 -154 93 -220 26 -66 57 -142 69 -168 12 -26
21 -57 19 -69 -3 -18 -9 -16 -68 28 -183 135 -420 405 -509 582 -94 186 -163
524 -147 712 10 105 52 328 81 433 14 48 25 99 25 112 0 34 12 31 35 -7z
m4969 13 c4 -5 -3 -7 -14 -4 -23 6 -26 13 -6 13 8 0 17 -4 20 -9z m191 -52
c74 -22 163 -52 197 -66 35 -14 92 -34 127 -45 36 -11 130 -46 210 -77 80 -32
214 -79 296 -105 83 -26 154 -52 160 -57 36 -35 -182 28 -415 121 -80 31 -206
78 -280 104 -74 26 -192 70 -262 97 -70 27 -133 49 -140 49 -14 0 -48 20 -36
20 4 0 68 -18 143 -41z m3285 4 c-50 -22 -324 -103 -346 -103 -17 1 -17 2 -2
10 14 9 139 47 308 95 61 18 83 17 40 -2z m2794 -118 c66 -71 16 -148 -95
-149 -60 0 -99 25 -99 63 0 85 139 146 194 86z m-8813 -37 c65 -50 70 -65 34
-94 -43 -34 -86 -40 -132 -18 -87 43 -75 144 17 144 28 0 50 -9 81 -32z m1121
-14 c128 -34 179 -53 150 -54 -14 0 -284 80 -291 86 -8 8 10 4 141 -32z m1388
-33 c52 -16 165 -52 250 -79 86 -28 189 -59 230 -70 41 -11 105 -30 141 -41
56 -18 158 -41 536 -121 29 -6 56 -16 59 -22 4 -6 -1 -8 -12 -4 -11 3 -75 14
-144 26 -147 24 -385 77 -412 91 -10 6 -89 28 -176 50 -246 63 -537 160 -583
193 -28 21 -34 22 111 -23z m3695 20 c-6 -4 -23 -13 -40 -19 -16 -6 -68 -24
-115 -42 -132 -49 -361 -120 -386 -120 -21 0 16 13 171 64 94 30 213 70 265
90 100 36 121 42 105 27z m3065 -197 c25 -18 113 -65 195 -106 188 -92 302
-168 420 -280 88 -83 187 -213 232 -303 27 -53 68 -180 93 -286 37 -159 50
-278 50 -462 0 -184 -12 -259 -23 -151 -8 73 -57 264 -98 381 -32 93 -82 191
-157 308 -63 100 -397 436 -375 378 17 -44 78 -137 156 -237 47 -60 112 -154
145 -210 78 -132 216 -425 236 -501 17 -68 50 -309 44 -326 -4 -13 -31 28
-129 196 -59 100 -81 127 -264 310 -205 205 -274 292 -363 455 -85 157 -141
352 -172 605 -10 81 -39 215 -57 261 -7 20 -3 18 67 -32z m-9784 -16 c-4 -13
-15 -68 -26 -123 -65 -349 -95 -461 -160 -600 -75 -161 -226 -348 -500 -620
-137 -135 -199 -205 -251 -282 -37 -56 -74 -105 -80 -109 -21 -12 -1 74 37
166 20 47 66 164 104 260 90 234 156 364 249 490 119 161 211 302 211 325 0 4
-45 -35 -100 -86 -176 -163 -278 -316 -392 -586 -83 -200 -116 -282 -134 -343
l-14 -45 5 45 c2 25 9 99 15 165 36 404 66 543 159 738 110 229 280 363 681
532 74 32 146 66 160 76 33 25 44 24 36 -3z m9404 -45 c0 -56 -19 -101 -47
-110 l-27 -9 38 -24 c35 -21 126 -131 126 -151 0 -5 -16 -27 -36 -48 -64 -72
-134 -75 -174 -9 -28 46 -25 91 9 158 l30 58 -45 48 c-25 26 -43 55 -42 63 4
19 88 50 136 51 28 0 32 -3 32 -27z m-8935 1 c12 -12 15 -31 13 -73 l-3 -56
-55 -5 -55 -5 42 -13 c54 -16 73 -50 73 -131 0 -79 -32 -111 -112 -111 -37 0
-108 66 -108 99 0 28 31 89 66 130 l27 32 -17 51 c-20 62 -20 63 0 82 21 22
107 21 129 0z m6265 -24 c0 -5 -9 -14 -19 -20 -31 -16 -373 -101 -390 -97 -26
6 31 26 219 74 96 24 176 46 179 49 7 7 11 5 11 -6z m2067 -66 c-3 -3 -12 -4
-19 -1 -8 3 -5 6 6 6 11 1 17 -2 13 -5z m-40 -10 c-3 -3 -12 -4 -19 -1 -8 3
-5 6 6 6 11 1 17 -2 13 -5z m-1128 -8 c-12 -11 -171 -57 -177 -52 -9 10 19 26
48 27 14 0 41 7 60 14 32 13 79 20 69 11z m1090 0 c-2 -2 -20 -6 -39 -10 -25
-4 -31 -3 -20 4 14 9 69 15 59 6z m-7589 -36 c170 -23 213 -37 80 -25 -101 8
-322 43 -329 52 -7 7 29 3 249 -27z m7133 -7 c-13 -2 -33 -2 -45 0 -13 2 -3 4
22 4 25 0 35 -2 23 -4z m-4497 -49 c66 -8 193 -18 283 -23 89 -5 165 -12 169
-15 10 -11 -252 -4 -388 10 -148 16 -259 33 -280 44 -17 10 45 5 216 -16z
m2834 -129 c0 -17 -126 -48 -245 -60 -33 -3 -73 -9 -90 -12 -20 -3 -27 -2 -20
5 10 11 34 16 145 32 36 6 92 16 125 24 70 16 85 18 85 11z m-3015 -66 c143
-6 264 -16 269 -20 14 -13 -421 -11 -524 1 -78 10 -126 17 -157 23 -7 2 -16 7
-20 11 -4 5 33 6 82 3 50 -4 207 -12 350 -18z m4035 12 c0 -4 -30 -16 -67 -25
-38 -9 -79 -19 -93 -23 -20 -5 -23 -3 -13 7 7 7 47 21 90 31 43 9 79 18 81 18
1 1 2 -3 2 -8z m-7195 -196 c66 -66 35 -125 -74 -141 -53 -8 -99 12 -124 56
-17 28 -17 29 15 65 37 43 59 53 110 54 30 1 44 -6 73 -34z m9030 -6 c25 -23
45 -50 45 -60 0 -11 -15 -35 -32 -55 -40 -43 -91 -57 -136 -38 -31 13 -72 66
-72 93 0 7 20 33 44 57 58 59 90 59 151 3z m-7708 -105 c-3 -3 -12 -4 -19 -1
-8 3 -5 6 6 6 11 1 17 -2 13 -5z m-728 -18 c66 -35 127 -134 115 -188 -7 -36
-75 -113 -117 -134 -67 -35 -147 -12 -197 58 -56 77 -47 154 28 220 64 56 120
70 171 44z m818 8 c-3 -3 -12 -4 -19 -1 -8 3 -5 6 6 6 11 1 17 -2 13 -5z
m5283 -5 c-76 -10 -404 -39 -439 -39 -13 0 -21 3 -17 7 8 8 381 40 466 40 l55
0 -65 -8z m1705 -12 c58 -33 105 -99 105 -148 0 -90 -81 -169 -172 -169 -59 0
-101 28 -137 92 -41 70 -40 110 3 169 57 78 128 98 201 56z m-1242 -4 c-7 -2
-19 -2 -25 0 -7 3 -2 5 12 5 14 0 19 -2 13 -5z m-113 -13 c0 -5 -2 -10 -4 -10
-3 0 -8 5 -11 10 -3 6 -1 10 4 10 6 0 11 -4 11 -10z m-1083 -142 c-5 -14 -114
-13 -202 1 -41 7 -26 9 78 10 99 1 128 -2 124 -11z m3085 -45 c47 -46 48 -72
3 -112 -62 -54 -101 -53 -166 6 -61 56 -48 113 34 148 41 17 82 4 129 -42z
m-9099 36 c74 -38 86 -87 34 -137 -72 -70 -151 -61 -194 21 -19 38 -10 60 39
97 44 32 84 38 121 19z m-2527 -109 c26 -28 129 -114 228 -193 306 -240 428
-373 516 -560 68 -145 120 -356 140 -572 6 -66 17 -144 25 -172 7 -29 10 -53
6 -53 -4 0 -26 41 -49 91 -58 127 -228 410 -318 529 -80 105 -253 294 -262
286 -9 -10 39 -109 133 -271 108 -189 194 -319 334 -505 108 -144 144 -208
156 -279 8 -49 7 -49 -60 5 -22 17 -98 64 -170 104 -174 97 -233 141 -341 251
-177 183 -299 408 -348 646 -20 96 -36 314 -38 546 -2 108 -2 197 -1 197 1 0
23 -23 49 -50z m14038 -57 c-23 -562 -44 -681 -160 -918 -68 -138 -163 -273
-279 -394 -73 -76 -122 -115 -260 -206 -93 -62 -192 -131 -220 -154 -27 -23
-52 -36 -54 -30 -6 20 32 102 64 138 41 45 126 181 240 381 48 85 104 180 125
210 20 30 64 102 97 160 33 58 71 123 85 145 14 22 29 51 33 65 7 24 7 24 -16
9 -47 -31 -269 -309 -337 -422 -60 -99 -158 -305 -194 -407 -17 -47 -37 -96
-45 -110 l-14 -25 6 25 c3 14 10 90 15 170 18 278 45 421 114 599 108 280 216
410 561 673 55 43 129 104 165 137 36 33 68 60 71 61 4 0 5 -48 3 -107z
m-9661 20 c-18 -2 -48 -2 -65 0 -18 2 -4 4 32 4 36 0 50 -2 33 -4z m-260 -10
c-13 -2 -35 -2 -50 0 -16 2 -5 4 22 4 28 0 40 -2 28 -4z m85 0 c-10 -2 -28 -2
-40 0 -13 2 -5 4 17 4 22 1 32 -1 23 -4z m5911 -3 c101 -5 187 -12 192 -17 8
-8 -398 11 -446 20 -37 8 69 6 254 -3z m-6156 -7 c-29 -2 -78 -2 -110 0 -32 2
-8 3 52 3 61 0 87 -1 58 -3z m4347 -39 c63 -14 122 -30 130 -35 24 -16 -51 -2
-200 37 -151 38 -107 37 70 -2z m3930 -276 c190 -157 326 -316 419 -489 73
-137 114 -329 114 -529 0 -110 -6 -155 -51 -375 -28 -138 -54 -259 -58 -268
-16 -44 -24 -5 -24 126 -1 249 -25 409 -87 567 -40 101 -190 402 -217 435
l-25 30 14 -50 c7 -27 23 -77 34 -110 12 -33 45 -139 72 -235 124 -426 134
-482 126 -696 -5 -138 -29 -260 -49 -248 -18 11 -56 101 -73 174 -12 48 -48
134 -102 240 -171 337 -264 565 -309 765 -22 93 -25 319 -10 653 l9 203 51
-49 c28 -27 103 -92 166 -144z m-10237 30 c14 -308 9 -577 -13 -705 -39 -229
-65 -301 -194 -532 -109 -196 -197 -405 -236 -556 -41 -165 -65 -184 -96 -77
-9 31 -41 115 -71 185 -136 318 -177 669 -109 932 37 141 163 395 246 493 35
41 140 137 238 218 98 80 186 157 196 170 11 13 23 24 26 24 4 0 10 -68 13
-152z m9570 129 c33 -14 107 -89 107 -108 0 -29 -95 -89 -141 -89 -27 0 -96
68 -104 103 -9 35 16 74 58 92 40 18 41 18 80 2z m-9008 -36 c68 -39 52 -104
-37 -149 -43 -22 -48 -22 -76 -8 -40 20 -72 63 -72 93 0 29 49 80 83 86 31 5
67 -2 102 -22z m1841 -112 c-22 -14 -92 -21 -80 -9 5 5 23 10 39 13 56 8 61 7
41 -4z m5279 -9 l30 -8 -30 0 c-16 0 -41 4 -55 8 l-25 8 25 0 c14 0 39 -4 55
-8z m-5375 -8 c0 -9 -105 -30 -173 -36 -67 -5 -25 12 68 27 50 8 93 15 98 16
4 0 7 -3 7 -7z m5453 -9 c-7 -2 -21 -2 -30 0 -10 3 -4 5 12 5 17 0 24 -2 18
-5z m92 -13 c27 -7 27 -8 5 -8 -14 0 -38 4 -55 8 -27 7 -27 8 -5 8 14 0 39 -4
55 -8z m-432 -17 c-7 -2 -19 -2 -25 0 -7 3 -2 5 12 5 14 0 19 -2 13 -5z m567
-13 c20 -6 21 -8 5 -8 -11 0 -31 4 -45 8 -20 6 -21 8 -5 8 11 0 31 -4 45 -8z
m160 -27 c58 -10 96 -19 85 -21 -11 -1 -65 6 -120 17 -127 24 -104 27 35 4z
m315 -42 c34 -11 -62 -4 -155 10 -45 7 -38 7 35 3 50 -2 104 -8 120 -13z
m1081 -70 c96 -44 101 -106 14 -160 -54 -32 -72 -27 -125 35 -42 49 -47 59
-39 82 9 26 64 62 94 62 8 0 33 -9 56 -19z m-8940 -7 c18 -9 38 -22 45 -30 18
-21 1 -83 -31 -116 -24 -23 -37 -28 -78 -28 -44 0 -54 4 -76 31 -37 43 -34 83
8 125 39 39 77 44 132 18z m65 -314 c26 -14 51 -67 44 -90 -9 -29 -85 -70
-129 -70 -66 0 -111 75 -73 122 31 40 115 60 158 38z m8837 -6 c26 -18 52 -65
52 -94 0 -52 -85 -79 -148 -46 -74 38 -96 116 -42 143 35 18 111 16 138 -3z
m-5953 -75 l40 -11 -75 -68 c-100 -90 -105 -95 -155 -167 -25 -34 -70 -83
-102 -108 -79 -62 -299 -170 -398 -194 -271 -68 -623 -42 -871 63 -165 70
-256 130 -365 244 -71 74 -102 100 -128 105 -46 9 -91 9 -91 -1 0 -16 68 -121
111 -173 52 -61 227 -195 319 -243 228 -120 474 -174 732 -162 177 8 285 27
433 77 278 94 455 217 578 402 49 73 59 101 58 170 l0 57 122 0 c67 0 132 -3
145 -6 26 -7 29 -26 7 -44 -9 -7 -50 -63 -92 -124 -94 -135 -129 -174 -265
-292 -149 -128 -219 -176 -350 -238 -280 -133 -536 -177 -854 -147 -229 22
-362 62 -582 176 -241 126 -422 289 -570 512 -81 124 -99 159 -87 171 4 4 509
8 1123 10 614 1 1118 5 1121 8 9 9 149 -4 196 -17z m4923 12 c94 -13 88 -47
-19 -129 -47 -36 -85 -77 -116 -124 -53 -81 -123 -137 -273 -220 -117 -65
-201 -94 -328 -113 -114 -17 -308 -19 -419 -4 -267 36 -545 167 -733 346 -99
95 -129 113 -181 113 l-29 0 34 -68 c44 -88 107 -156 214 -235 176 -127 269
-175 452 -230 175 -53 243 -62 445 -61 276 3 462 43 669 144 177 87 343 246
416 396 40 82 40 116 0 131 -53 20 -32 31 73 37 195 12 237 11 237 -7 0 -7
-37 -69 -81 -137 -66 -100 -109 -152 -218 -260 -248 -246 -457 -356 -811 -425
-258 -50 -436 -44 -701 24 -194 49 -264 76 -403 152 -132 73 -245 159 -341
260 -67 71 -246 309 -268 356 -24 53 -85 50 1079 52 593 1 1080 4 1083 6 7 8
159 5 219 -4z m-2504 -356 c72 -72 172 -168 221 -214 90 -83 90 -83 10 -14
-143 122 -328 299 -419 401 -115 129 -134 165 -25 47 45 -49 141 -149 213
-220z m-5196 99 c42 -29 22 -119 -37 -160 -11 -8 -40 -16 -63 -16 -87 -1 -119
93 -54 158 29 29 41 34 83 34 28 0 58 -7 71 -16z m8605 -10 c48 -24 97 -75 97
-100 0 -13 -15 -35 -35 -53 -28 -24 -45 -31 -78 -31 -47 1 -67 13 -103 61 -33
45 -30 71 11 108 40 35 62 38 108 15z m-3571 -247 c56 -67 125 -147 153 -177
27 -30 39 -46 26 -35 -52 44 -234 247 -281 314 -45 65 0 20 102 -102z m-4943
-83 c44 -37 43 -91 -2 -140 -54 -60 -144 -59 -183 1 -22 34 -6 71 52 125 52
48 88 52 133 14z m8395 16 c40 -15 106 -80 106 -104 0 -41 -96 -104 -137 -89
-38 13 -74 46 -93 83 -17 33 -18 43 -8 65 21 46 78 66 132 45z m2736 -5 c0
-35 -133 -464 -175 -565 -30 -71 -114 -216 -173 -300 -62 -87 -202 -227 -280
-279 -84 -56 -286 -153 -387 -185 -112 -36 -326 -89 -332 -82 -3 3 -3 16 1 30
4 16 25 35 61 55 30 17 88 62 128 99 39 37 110 100 157 141 112 98 498 490
506 514 15 46 -11 33 -166 -82 -145 -108 -541 -496 -607 -594 -25 -37 -47 -66
-50 -63 -5 5 39 124 122 331 131 326 286 533 513 682 51 34 120 72 155 87 34
14 141 57 237 96 96 38 195 81 220 94 44 23 70 31 70 21z m-6289 -140 c12 -16
-6 -1 -40 35 -33 36 -60 70 -60 75 0 11 68 -64 100 -110z m4144 59 c100 -152
227 -430 281 -617 44 -152 68 -335 59 -442 -18 -220 -114 -507 -240 -720 -33
-55 -79 -134 -103 -175 -23 -41 -41 -64 -38 -50 68 306 96 540 96 784 0 203
-21 368 -52 401 -19 21 -25 -21 -31 -223 -19 -587 -75 -982 -162 -1137 -20
-36 -40 -65 -45 -65 -4 0 -6 51 -3 113 7 138 -6 235 -53 400 -74 256 -86 305
-100 407 -26 194 -16 392 27 563 24 93 146 400 222 553 30 61 65 146 78 188
13 42 24 76 25 76 1 0 18 -25 39 -56z m-11740 17 c111 -35 368 -133 450 -171
77 -35 257 -161 315 -220 25 -25 67 -79 95 -120 72 -110 218 -419 255 -540 18
-58 41 -122 52 -142 10 -21 16 -38 14 -38 -2 0 -48 56 -101 124 -169 219 -313
357 -530 512 -121 85 -156 105 -178 102 -18 -3 15 -41 194 -218 248 -247 555
-536 616 -579 43 -31 59 -49 50 -58 -8 -8 -113 15 -212 47 -49 16 -126 38
-170 50 -44 11 -125 43 -180 70 -205 99 -327 194 -434 337 -152 202 -214 338
-291 638 -28 110 -53 208 -56 218 -7 23 5 22 111 -12z m2083 -53 c16 -35 61
-118 99 -185 57 -98 83 -159 131 -305 104 -314 115 -366 115 -563 0 -198 -5
-231 -83 -507 -52 -183 -61 -227 -75 -379 -9 -95 -15 -190 -13 -211 2 -21 0
-38 -4 -38 -19 0 -70 130 -93 233 -60 280 -80 454 -95 841 -7 176 -15 267 -24
284 -7 14 -16 21 -19 15 -29 -47 -49 -570 -28 -737 16 -123 70 -341 111 -442
17 -42 29 -79 26 -81 -5 -5 -94 135 -146 232 -24 44 -51 91 -61 105 -72 105
-167 343 -218 545 -44 176 -36 365 24 600 42 165 82 264 154 390 32 55 71 125
86 155 31 61 65 110 77 110 4 0 21 -28 36 -62z m6206 -42 c27 -23 65 -55 85
-71 37 -32 251 -188 331 -242 25 -17 54 -41 65 -53 11 -12 40 -33 65 -45 59
-31 162 -108 302 -226 62 -53 181 -142 263 -199 83 -56 171 -119 197 -141 26
-22 80 -62 119 -89 40 -28 68 -50 62 -50 -6 0 -66 38 -134 84 -68 47 -177 120
-242 163 -123 81 -144 97 -394 297 -211 170 -219 177 -307 237 -249 172 -301
213 -486 389 -48 45 -17 23 74 -54z m-344 -41 c19 -19 32 -35 29 -35 -3 0 -20
16 -39 35 -19 19 -32 35 -29 35 3 0 20 -16 39 -35z m150 -150 c57 -58 100
-105 96 -105 -4 0 -13 6 -20 13 -7 6 -33 31 -57 53 -67 63 -141 144 -132 144
5 0 55 -47 113 -105z m-5213 15 c18 -10 40 -31 49 -46 17 -25 17 -28 -2 -62
-26 -49 -77 -82 -126 -82 -31 0 -45 6 -69 32 -35 39 -35 38 -8 90 43 84 93
107 156 68z m4887 -72 c16 -27 26 -48 23 -48 -7 0 -77 115 -77 126 0 10 18
-16 54 -78z m3270 68 c66 -27 98 -103 58 -139 -24 -22 -86 -47 -117 -47 -33 0
-101 62 -115 105 -12 38 -3 66 28 84 25 15 107 13 146 -3z m-5080 -133 c-20
-26 -84 -120 -142 -208 -58 -88 -133 -197 -166 -242 -34 -45 -106 -153 -161
-240 -54 -87 -117 -183 -140 -213 -22 -31 -75 -117 -118 -191 -64 -110 -218
-335 -252 -367 -19 -17 35 73 105 178 42 63 98 152 124 197 76 135 260 420
386 598 47 66 110 158 140 205 110 171 246 347 258 335 2 -1 -13 -25 -34 -52z
m1596 -188 c18 -44 66 -154 107 -245 42 -91 82 -181 91 -200 8 -19 24 -53 35
-75 16 -32 17 -37 3 -26 -9 7 -16 18 -16 23 0 5 -7 20 -16 33 -34 51 -168 350
-233 520 -13 33 -29 74 -36 90 -7 17 -17 43 -24 58 -6 15 -11 31 -10 35 1 11
64 -124 99 -213z m-2480 180 c-7 -9 -15 -13 -18 -10 -3 2 1 11 8 20 7 9 15 13
18 10 3 -2 -1 -11 -8 -20z m1227 -96 c-86 -200 -167 -379 -213 -470 -25 -51
-66 -143 -90 -204 -49 -125 -103 -245 -104 -230 0 6 9 35 21 65 12 30 35 93
51 140 16 47 76 182 133 300 57 118 119 253 140 300 53 124 100 219 103 210 2
-4 -17 -55 -41 -111z m-1297 39 c-68 -61 -270 -196 -270 -181 0 8 29 32 100
83 34 25 94 68 133 97 82 59 103 60 37 1z m2824 36 c3 -8 2 -12 -4 -9 -6 3
-10 10 -10 16 0 14 7 11 14 -7z m-4731 -174 c35 -39 34 -67 -2 -118 -48 -65
-125 -78 -186 -31 -41 33 -29 94 32 150 36 34 50 39 93 34 23 -3 45 -15 63
-35z m4860 -9 c27 -46 14 -38 -18 12 -16 23 -22 37 -14 30 8 -6 22 -25 32 -42z
m2916 14 c21 -19 44 -49 51 -65 11 -27 10 -34 -13 -69 -36 -55 -75 -68 -132
-46 -90 34 -124 128 -68 187 22 23 35 28 75 28 41 0 54 -5 87 -35z m-5549 -75
c-6 -11 -93 -102 -193 -202 -100 -101 -225 -232 -277 -292 -52 -60 -106 -121
-118 -135 -69 -76 -171 -202 -197 -243 -17 -27 -36 -48 -43 -48 -19 0 80 136
223 303 71 85 165 197 207 249 43 52 111 124 150 159 40 35 112 101 161 146
48 46 90 83 92 83 3 0 1 -9 -5 -20z m-696 -54 c-3 -8 -58 -51 -122 -95 -65
-44 -160 -115 -212 -157 -88 -71 -136 -105 -232 -163 -68 -41 -40 -12 35 36
39 25 110 78 157 118 118 99 159 130 274 207 56 37 102 67 103 68 1 0 0 -7 -3
-14z m3966 -88 c0 -16 -16 -7 -29 15 -39 63 -41 69 -8 32 20 -22 36 -43 37
-47z m-473 -45 c18 -24 47 -69 65 -100 17 -32 45 -77 61 -101 16 -24 27 -45
25 -47 -11 -11 -95 118 -200 305 -15 28 -16 30 -1 10 10 -13 33 -44 50 -67z
m498 9 c-3 -3 -11 0 -18 7 -9 10 -8 11 6 5 10 -3 15 -9 12 -12z m-5320 -48
c52 -56 40 -165 -20 -190 -53 -22 -147 5 -160 45 -8 28 32 127 62 151 37 29
88 26 118 -6z m7342 -10 c85 -65 79 -131 -20 -195 -33 -22 -63 -39 -67 -39 -4
0 -26 18 -49 40 -32 31 -41 47 -41 72 0 36 32 112 58 141 22 25 72 17 119 -19z
m-1837 -169 l25 -30 -27 24 c-16 14 -28 29 -28 34 0 6 1 8 3 6 1 -2 13 -17 27
-34z m50 -45 c0 -5 -2 -10 -4 -10 -3 0 -8 5 -11 10 -3 6 -1 10 4 10 6 0 11 -4
11 -10z m1628 -10 c53 -13 65 -28 57 -75 -7 -49 -28 -82 -59 -96 -47 -22 -126
49 -126 113 0 32 54 83 79 72 9 -3 31 -10 49 -14z m-2168 -41 c0 -6 -4 -7 -10
-4 -5 3 -10 11 -10 16 0 6 5 7 10 4 6 -3 10 -11 10 -16z m633 -33 c16 -18 21
-26 14 -26 -2 0 -19 17 -38 37 -18 20 -25 31 -14 23 11 -8 28 -24 38 -34z
m2144 -42 c7 -27 26 -105 44 -174 116 -462 136 -590 119 -765 -16 -173 -51
-291 -146 -490 -51 -107 -122 -205 -228 -314 -81 -84 -236 -227 -236 -218 0 3
19 36 42 73 55 91 139 268 177 372 36 99 56 194 75 362 30 256 31 360 6 360
-18 0 -30 -40 -55 -191 -50 -299 -167 -697 -266 -905 -27 -57 -58 -102 -104
-150 -61 -63 -66 -67 -61 -39 33 182 38 242 46 600 10 484 22 558 152 882 70
175 119 263 215 383 37 47 95 127 128 178 33 51 64 91 70 89 5 -2 15 -26 22
-53z m-8297 -74 c134 -159 226 -309 330 -538 137 -303 169 -503 152 -952 -11
-282 -3 -373 43 -505 3 -11 -18 6 -48 38 -45 48 -66 84 -121 206 -102 231
-179 454 -246 721 -35 135 -67 253 -72 263 -12 24 -48 22 -48 -3 0 -25 56
-417 71 -490 15 -79 57 -206 90 -272 16 -31 67 -120 115 -198 47 -77 83 -146
81 -153 -6 -16 -300 274 -386 381 -106 130 -202 349 -231 523 -14 93 -12 270
5 406 18 133 31 192 80 344 19 58 44 156 57 217 12 62 27 112 33 112 5 0 48
-45 95 -100z m726 71 c60 -27 96 -80 102 -146 4 -51 3 -55 -21 -66 -40 -18
-107 11 -157 68 -49 56 -54 100 -15 138 29 30 38 30 91 6z m5542 -56 c59 -53
239 -281 229 -291 -2 -3 -62 64 -132 148 -71 84 -138 164 -149 178 -19 22 -19
23 -2 10 11 -8 35 -28 54 -45z m1171 -71 c63 -32 87 -72 77 -128 -9 -46 -34
-59 -104 -54 -48 4 -60 10 -89 41 -44 49 -45 96 -4 138 36 36 53 36 120 3z
m-1614 -245 c156 -236 176 -269 170 -269 -7 0 -265 380 -301 444 -8 15 -11 25
-4 21 6 -4 67 -92 135 -196z m4848 103 c-191 -359 -379 -598 -586 -746 -158
-112 -387 -189 -646 -215 -110 -12 -441 -15 -441 -5 0 3 11 15 25 26 14 11 37
41 52 66 94 161 308 454 416 568 37 40 100 94 140 122 94 64 273 154 362 180
125 38 375 73 665 95 61 4 62 0 13 -91z m-12913 68 c281 -19 439 -58 618 -150
105 -54 242 -158 311 -236 53 -61 203 -258 259 -340 22 -34 64 -90 92 -124 27
-35 48 -65 46 -67 -3 -4 -36 17 -316 199 -197 129 -333 200 -540 283 -91 36
-171 69 -177 72 -8 3 -13 -3 -13 -15 0 -28 86 -88 265 -187 77 -43 178 -100
224 -127 138 -81 431 -224 511 -249 81 -25 120 -51 120 -82 0 -19 -6 -20 -252
-14 -220 5 -268 9 -368 31 -265 58 -430 145 -613 324 -159 156 -250 284 -369
522 l-78 155 27 6 c43 10 95 10 253 -1z m7560 -212 c34 -73 68 -149 75 -169 8
-20 21 -51 29 -68 9 -17 14 -31 11 -31 -6 0 -195 382 -195 394 0 3 4 6 8 6 5
0 37 -60 72 -132z m-4196 11 c44 -53 54 -93 29 -121 -24 -27 -66 -48 -96 -48
-48 0 -107 69 -107 125 0 42 50 85 98 85 35 0 45 -6 76 -41z m6066 16 c32 -17
60 -61 60 -95 0 -29 -26 -76 -52 -94 -55 -39 -137 -1 -159 74 -15 51 1 93 44
114 40 20 70 20 107 1z m-5780 -242 c59 -34 70 -106 24 -154 -70 -73 -184 -46
-187 44 -1 42 23 81 66 107 39 24 61 25 97 3z m3453 -47 c29 -71 53 -83 165
-85 48 -1 92 -47 92 -97 l0 -37 -127 6 c-71 4 -203 7 -295 7 l-168 0 0 119 0
120 48 4 c26 2 97 4 157 5 l110 2 18 -44z m2053 28 c60 -40 66 -109 15 -158
-49 -47 -133 -32 -171 29 -28 46 -26 81 9 116 24 24 38 29 76 29 26 0 57 -7
71 -16z m-3260 -6 c10 -10 18 -151 11 -180 -6 -23 -11 -24 -89 -26 -46 -1
-168 -6 -271 -12 -104 -6 -198 -8 -208 -5 -16 5 -19 14 -17 43 3 36 3 36 68
49 108 22 161 56 183 116 6 17 76 26 194 24 67 -1 125 -5 129 -9z m-1929 -217
c23 -34 30 -94 15 -119 -18 -27 -77 -62 -107 -62 -43 0 -67 29 -72 87 -6 56
19 96 71 119 45 20 67 14 93 -25z m4856 -3 c58 -41 65 -107 16 -163 -26 -30
-37 -35 -73 -35 -90 1 -132 85 -84 171 34 60 81 69 141 27z m-5811 -126 c35
-32 128 -105 208 -163 276 -198 410 -323 518 -482 155 -228 199 -351 333 -920
34 -147 75 -232 188 -388 12 -17 12 -19 -5 -12 -61 26 -107 59 -160 115 -97
104 -208 239 -254 308 -86 130 -145 217 -225 335 -46 66 -120 188 -165 270
-91 165 -117 205 -131 205 -16 0 -10 -36 30 -153 74 -221 183 -437 289 -576
86 -114 275 -298 385 -375 54 -38 96 -70 94 -73 -7 -6 -189 63 -264 101 -268
134 -494 308 -615 469 -105 141 -147 233 -207 445 -41 145 -57 280 -71 597 -6
143 -15 278 -20 300 -17 74 -10 73 72 -3z m2896 -84 l-3 -122 -175 2 c-96 1
-291 7 -434 14 l-258 11 7 86 c4 47 12 92 19 99 9 10 111 15 422 21 225 4 413
9 417 9 4 1 6 -53 5 -120z m3832 109 c0 -8 -7 -58 -15 -113 -8 -54 -19 -182
-25 -284 -20 -379 -65 -591 -166 -793 -91 -182 -267 -375 -454 -500 -129 -86
-229 -132 -435 -202 -77 -26 -155 -56 -174 -66 -18 -11 -36 -18 -39 -15 -2 3
20 49 51 103 72 127 80 149 121 328 115 493 130 545 216 720 70 143 180 281
321 402 106 90 568 431 587 432 6 1 12 -5 12 -12z m-2310 -13 c102 -4 192 -10
201 -15 16 -8 58 -154 47 -165 -17 -16 -206 -26 -540 -28 -201 0 -368 1 -371
4 -3 3 -1 30 4 60 5 30 11 76 14 102 l6 47 57 4 c60 5 270 1 582 -9z m-3174
-51 c25 -26 46 -83 40 -109 -8 -31 -64 -94 -94 -105 -30 -12 -57 3 -82 44 -34
55 -27 94 25 144 49 47 82 54 111 26z m4222 -58 c60 -51 65 -113 12 -166 -30
-31 -83 -39 -120 -19 -47 25 -74 114 -50 160 27 51 111 64 158 25z m-3895 -85
c31 -24 50 -78 41 -114 -9 -36 -89 -108 -116 -104 -52 8 -85 112 -52 162 16
25 80 76 95 76 3 0 18 -9 32 -20z m3532 -93 c49 -47 55 -58 55 -93 0 -42 -26
-77 -77 -103 -32 -16 -39 -14 -79 21 -53 47 -68 88 -49 134 23 55 54 94 76 94
11 0 44 -24 74 -53z m-3215 -37 c21 -11 40 -60 40 -105 0 -26 -10 -42 -50 -79
-27 -25 -58 -46 -68 -46 -42 0 -83 90 -62 139 12 30 51 71 85 89 25 14 32 14
55 2z m2813 -89 c14 -5 43 -27 66 -49 39 -37 40 -41 30 -70 -14 -41 -73 -92
-106 -92 -32 0 -113 78 -113 109 0 30 25 77 52 95 26 18 38 19 71 7z m-2473
-63 c43 -59 41 -96 -10 -142 -22 -20 -43 -36 -48 -36 -18 1 -55 29 -73 56 -30
46 -25 81 20 125 50 50 73 50 111 -3z m-4045 -9 c195 -24 399 -113 570 -250
118 -94 291 -246 390 -343 72 -71 72 -71 -30 -10 -35 20 -295 103 -451 142
-82 21 -231 63 -331 92 -100 30 -186 51 -190 46 -19 -19 75 -77 220 -136 233
-95 300 -116 462 -150 349 -71 494 -117 482 -153 -4 -13 -12 -14 -237 -58
-212 -41 -322 -50 -455 -38 -127 11 -239 38 -342 80 -148 62 -413 247 -525
367 -57 61 -321 392 -317 397 7 7 327 22 494 23 94 1 211 -3 260 -9z m10912 1
c73 0 133 -3 133 -8 0 -12 -163 -213 -264 -325 -242 -268 -566 -455 -881 -508
-106 -18 -320 -5 -505 30 -85 16 -179 32 -207 36 -29 4 -53 10 -53 14 0 20
102 54 260 86 355 74 496 117 767 235 145 63 183 84 183 102 0 14 -52 5 -181
-32 -57 -17 -158 -42 -224 -55 -142 -30 -179 -41 -345 -107 -105 -42 -319
-118 -333 -118 -2 0 62 65 142 144 241 237 394 348 586 424 183 73 319 93 594
86 107 -2 254 -4 328 -4z m-4723 -20 c43 -16 69 -94 50 -145 -9 -21 -56 -45
-93 -45 -21 0 -37 9 -56 32 -23 27 -26 39 -22 77 8 72 58 105 121 81z m-1795
-66 c49 -56 53 -89 14 -126 -33 -30 -94 -54 -117 -45 -22 9 -56 67 -56 97 0
45 63 119 102 120 9 0 35 -21 57 -46z m1445 -19 c37 -25 78 -89 70 -111 -12
-33 -47 -64 -71 -64 -50 0 -123 59 -123 100 0 21 66 90 86 90 8 0 25 -7 38
-15z m-2795 -172 c53 -32 173 -91 266 -131 237 -102 404 -203 523 -317 208
-198 323 -396 453 -785 80 -239 118 -337 150 -381 35 -50 14 -45 -58 12 -37
30 -95 74 -128 99 -152 113 -291 249 -443 435 -58 72 -132 159 -163 195 -31
36 -84 103 -118 150 -67 92 -91 113 -91 82 0 -90 287 -546 417 -663 43 -39
204 -161 287 -218 27 -19 90 -56 140 -82 50 -27 85 -49 78 -49 -7 0 -57 11
-110 24 -53 13 -133 31 -177 41 -58 12 -131 42 -265 107 -260 127 -360 210
-523 436 -152 211 -188 311 -256 707 -28 158 -65 324 -86 378 -4 9 -4 17 1 17
4 0 50 -26 103 -57z m4256 -25 c-7 -35 -24 -117 -38 -183 -14 -66 -38 -190
-52 -275 -50 -291 -137 -495 -283 -668 -56 -65 -219 -208 -292 -254 -65 -42
-228 -124 -285 -145 -160 -58 -446 -125 -463 -109 -2 2 36 23 85 46 224 105
465 308 586 493 91 138 279 477 275 495 -5 25 -75 -43 -155 -151 -103 -140
-183 -238 -316 -392 -167 -192 -196 -219 -322 -304 -61 -41 -129 -95 -153
-120 -48 -50 -47 -40 7 68 17 33 42 102 56 153 45 169 126 392 186 512 89 178
189 305 342 434 107 91 190 140 482 282 132 65 260 131 285 149 65 45 70 42
55 -31z m-6114 -748 c63 -6 147 -20 188 -31 87 -23 233 -93 382 -181 113 -67
342 -229 334 -236 -2 -2 -18 1 -36 7 -40 14 -403 65 -609 86 -85 9 -233 25
-328 36 -95 11 -177 17 -182 14 -31 -19 -1 -35 139 -74 276 -78 442 -100 831
-110 261 -7 278 -9 339 -33 l65 -25 -115 -27 c-63 -15 -181 -49 -264 -76 -223
-73 -303 -91 -450 -97 -115 -4 -145 -2 -260 21 -71 15 -163 38 -205 52 -126
43 -343 175 -526 322 -86 69 -305 266 -311 282 -2 3 63 5 145 6 110 0 199 8
357 32 116 17 233 33 260 34 28 2 68 4 91 6 22 1 92 -2 155 -8z m8184 0 c66
-6 196 -19 288 -31 92 -11 231 -22 309 -24 77 -3 143 -6 144 -8 8 -7 -213
-214 -306 -288 -213 -169 -335 -245 -489 -304 -122 -47 -297 -93 -386 -101
-144 -13 -382 31 -637 116 -98 33 -210 65 -250 72 -40 6 -77 15 -82 20 -5 4 8
15 30 24 28 12 90 19 229 25 217 10 480 33 640 56 130 18 516 114 518 128 3
17 -60 17 -182 1 -64 -9 -224 -25 -356 -36 -339 -29 -405 -37 -672 -89 -56
-11 -54 -1 4 28 26 13 103 59 171 103 325 211 595 310 857 317 28 0 104 -4
170 -9z m-6575 -798 c63 -17 158 -47 210 -68 52 -21 131 -47 175 -59 92 -26
91 -27 -95 -43 -155 -14 -693 -98 -883 -138 -78 -16 -107 -32 -85 -45 18 -12
160 -11 336 1 190 14 259 24 477 70 324 70 515 95 515 70 0 -5 -4 -10 -8 -10
-11 0 -257 -147 -377 -225 -319 -206 -541 -257 -875 -199 -156 27 -362 111
-565 230 -44 26 -121 71 -172 101 -50 30 -97 60 -103 68 -14 17 -15 16 148 40
139 20 284 60 455 126 239 93 375 119 592 115 119 -3 157 -8 255 -34z m5205 8
c130 -21 209 -44 380 -110 136 -53 212 -74 385 -105 73 -14 138 -29 143 -34
16 -16 -235 -184 -362 -242 -160 -73 -332 -138 -403 -153 -150 -31 -443 -15
-578 32 -87 31 -216 91 -340 161 -63 35 -169 93 -235 128 -65 34 -126 69 -134
77 -12 13 -11 16 13 22 52 13 211 -5 363 -40 269 -62 480 -86 767 -86 122 0
177 3 170 10 -19 19 -505 104 -830 145 -109 14 -220 28 -246 32 -27 3 -48 10
-48 14 0 5 6 9 14 9 8 0 82 22 165 50 267 88 364 107 536 109 77 1 163 -6 240
-19z m-3910 -430 c88 -18 164 -36 169 -41 6 -5 -13 -9 -47 -9 -125 0 -371 -60
-545 -134 -103 -43 -283 -140 -322 -172 -33 -28 -40 -54 -14 -54 9 0 89 31
178 69 272 116 574 217 708 236 109 16 182 6 164 -23 -7 -12 -285 -215 -413
-301 -137 -92 -304 -163 -452 -191 -78 -15 -235 -12 -334 5 -79 14 -453 114
-506 136 -31 13 -23 18 74 55 145 56 278 129 482 266 300 200 480 234 858 158z
m2563 4 c87 -17 237 -66 297 -96 57 -29 234 -140 343 -215 103 -71 224 -135
290 -153 23 -6 42 -14 42 -18 0 -12 -178 -78 -273 -101 -158 -39 -283 -53
-407 -48 -212 9 -375 57 -552 163 -139 83 -398 265 -455 320 -41 39 -59 82
-29 71 7 -3 62 -17 122 -31 60 -15 141 -35 179 -46 39 -10 133 -35 210 -55 82
-21 202 -63 290 -100 149 -63 232 -91 242 -81 10 10 -10 26 -92 76 -214 129
-395 190 -713 240 -108 17 -198 33 -199 34 -2 2 41 6 94 10 54 4 157 16 228
25 168 23 287 25 383 5z m-1043 -278 c154 -74 593 -359 693 -449 l23 -21 -59
-12 c-75 -15 -209 -31 -337 -39 l-100 -7 -72 85 c-90 106 -360 327 -438 358
l-30 11 24 9 c13 5 35 17 50 28 50 35 126 71 151 71 14 0 57 -15 95 -34z
m-781 -31 c44 -23 81 -46 83 -51 2 -5 -14 -19 -35 -31 -58 -33 -201 -141 -261
-197 -30 -28 -76 -85 -102 -126 -35 -54 -49 -69 -49 -52 0 27 0 27 -47 2 -37
-18 -60 -25 -133 -35 -23 -3 -86 8 -178 33 l-144 38 54 36 c29 20 112 76 183
125 135 92 459 296 485 306 25 9 61 -3 144 -48z"/>
<path d="M7388 13806 c-59 -21 -126 -64 -152 -99 -33 -43 -45 -102 -46 -213 0
-82 3 -94 28 -135 16 -24 48 -62 72 -83 41 -37 42 -39 15 -32 -16 4 -41 16
-56 27 -31 22 -53 25 -47 7 17 -50 215 -105 330 -93 164 19 282 145 295 317
12 145 -72 277 -197 313 -24 7 -24 6 8 -27 68 -72 93 -220 50 -305 -29 -59
-96 -119 -148 -133 -81 -22 -196 35 -234 115 -23 47 -23 155 -1 189 9 13 47
50 85 82 38 31 71 63 74 71 7 17 -27 17 -76 -1z"/>
<path d="M10380 13185 c8 -9 48 -40 90 -68 210 -142 377 -268 587 -444 65 -54
154 -128 198 -163 44 -35 121 -102 170 -150 96 -91 163 -146 170 -138 6 6 -58
109 -111 178 -90 118 -424 428 -587 544 -56 40 -441 230 -510 252 -20 6 -21 5
-7 -11z"/>
<path d="M4428 13137 c-172 -89 -231 -126 -355 -219 -161 -122 -227 -183 -444
-411 -181 -191 -301 -338 -287 -353 9 -8 230 181 394 337 76 72 189 173 250
224 61 52 151 130 200 176 85 79 200 168 327 254 117 79 77 75 -85 -8z"/>
<path d="M3695 11734 c-196 -41 -358 -79 -430 -101 -87 -28 -365 -150 -424
-187 -54 -34 -152 -146 -128 -146 17 0 217 94 316 149 174 96 269 133 526 206
122 34 235 70 251 78 l29 16 -35 0 c-19 -1 -66 -8 -105 -15z"/>
<path d="M7444 10947 c-107 -54 -191 -161 -185 -236 2 -19 138 -157 190 -191
67 -45 101 -41 164 19 29 27 69 77 89 111 33 55 35 65 26 93 -30 87 -136 193
-215 216 -22 6 -39 3 -69 -12z m96 -103 c58 -49 74 -108 45 -164 -18 -34 -65
-70 -93 -70 -23 0 -82 65 -106 115 -27 56 -20 78 38 123 38 29 77 28 116 -4z"/>
<path d="M7487 10706 c-5 -21 -6 -41 -3 -44 12 -11 17 7 14 44 l-3 39 -8 -39z"/>
<path d="M8802 10515 c143 -53 175 -62 127 -36 -37 20 -213 81 -233 80 -6 0
42 -20 106 -44z"/>
<path d="M6049 10481 c-66 -21 -201 -82 -195 -88 4 -5 238 81 266 98 25 14 -7
10 -71 -10z"/>
<path d="M2173 7039 c-18 -23 -103 -170 -140 -244 -73 -144 -118 -318 -144
-553 -18 -168 -1 -321 45 -409 32 -64 37 -40 34 165 -2 180 0 209 25 337 51
263 97 438 148 567 47 121 59 169 32 137z"/>
<path d="M13465 4457 c-269 -96 -529 -231 -780 -404 -113 -77 -243 -193 -218
-193 7 0 87 41 180 91 92 50 227 120 298 156 181 91 516 289 573 339 l27 23
-25 0 c-14 -1 -38 -6 -55 -12z"/>
<path d="M10484 3282 c-6 -4 -37 -47 -69 -97 -32 -49 -90 -140 -130 -200 -40
-61 -102 -161 -139 -222 -88 -149 -200 -297 -311 -413 -101 -105 -160 -178
-152 -186 10 -11 212 135 317 229 58 52 124 119 146 148 76 100 213 360 303
575 67 161 74 192 35 166z"/>
<path d="M3260 1366 c0 -9 30 -14 35 -6 4 6 -3 10 -14 10 -12 0 -21 -2 -21 -4z"/>
<path d="M3224 1353 c4 -4 16 -8 28 -10 28 -4 18 6 -12 12 -12 2 -20 1 -16 -2z"/>
<path d="M3326 1335 c4 -24 -4 -30 -31 -26 -5 1 1 -9 15 -22 14 -13 26 -21 28
-17 2 5 13 6 25 3 20 -4 20 -3 4 7 -9 6 -22 8 -28 4 -7 -4 -10 -1 -7 7 3 8 11
13 18 11 10 -2 10 1 -1 14 -8 10 -9 15 -2 11 6 -4 15 -2 19 4 4 8 3 9 -5 5 -6
-4 -14 0 -17 8 -10 25 -23 18 -18 -9z"/>
<path d="M3386 1310 c13 -13 7 -50 -7 -50 -5 0 -9 -4 -9 -10 0 -5 7 -7 15 -4
10 4 13 2 10 -8 -8 -20 54 -51 72 -36 17 14 16 33 -2 48 -8 7 -12 17 -8 23 3
5 1 7 -5 4 -13 -9 -44 2 -37 14 3 4 -5 13 -17 20 -18 9 -21 9 -12 -1z m42 -58
c-5 -26 -23 -24 -26 3 -1 18 2 23 14 18 8 -3 14 -12 12 -21z m37 -41 c-3 -6
-12 -8 -19 -5 -12 5 -13 15 -7 42 1 2 8 -4 17 -12 8 -9 13 -20 9 -25z"/>
<path d="M3500 1228 c0 -7 11 -18 25 -25 32 -15 32 0 0 21 -18 12 -25 13 -25
4z"/>
<path d="M3483 1182 c-9 -6 -4 -13 15 -24 19 -12 32 -14 42 -7 13 9 13 10 0 8
-22 -3 -51 12 -44 22 6 11 3 11 -13 1z"/>
<path d="M3560 1159 c0 -5 4 -8 9 -4 5 3 12 1 16 -5 3 -5 -3 -10 -14 -10 -12
0 -21 -5 -21 -11 0 -6 7 -9 15 -6 8 4 17 1 21 -5 5 -7 2 -8 -7 -3 -9 5 -11 5
-4 -2 6 -6 70 -46 142 -88 118 -69 135 -76 150 -64 16 12 17 12 6 -2 -11 -13
-7 -19 27 -38 22 -12 46 -19 52 -15 7 4 10 3 5 -1 -4 -5 16 -21 44 -37 40 -21
55 -25 65 -17 8 6 12 15 9 19 -3 4 2 11 11 14 25 10 26 7 4 -16 -11 -12 -20
-25 -20 -30 0 -4 23 -19 50 -32 28 -13 47 -19 44 -13 -3 7 1 4 9 -6 8 -10 17
-14 18 -9 2 5 16 12 31 16 21 5 26 3 22 -7 -5 -15 23 -44 33 -34 3 4 11 3 17
-3 8 -6 12 -1 14 16 1 15 -2 23 -8 19 -6 -4 -7 -11 -4 -17 5 -7 2 -8 -5 -4 -7
5 -10 15 -7 23 4 8 1 11 -5 8 -6 -4 -8 -13 -5 -21 3 -8 1 -14 -4 -14 -11 0
-14 13 -10 44 1 15 -2 17 -17 12 -10 -4 -34 -9 -53 -9 -34 -2 -35 -1 -25 20 5
13 14 23 18 23 5 0 6 -4 2 -9 -3 -5 0 -13 6 -17 8 -4 9 -3 5 4 -4 7 -3 12 3
12 5 0 13 -4 16 -10 9 -14 22 -12 28 4 4 10 1 13 -9 9 -7 -3 -14 0 -14 6 0 6
-7 8 -17 4 -11 -5 -14 -3 -8 6 6 10 3 11 -12 3 -14 -8 -24 -6 -43 9 -22 18
-22 19 -3 10 27 -13 46 -14 38 -2 -3 5 -19 12 -35 16 -17 4 -28 10 -25 15 3 5
1 11 -5 15 -5 3 -10 -1 -10 -9 0 -9 -4 -16 -10 -16 -5 0 -7 6 -4 13 3 8 -1 19
-8 25 -17 13 -54 9 -51 -6 2 -6 -4 -9 -12 -6 -30 12 -9 31 28 25 14 -2 7 8
-12 19 -16 8 -26 5 -53 -17 l-33 -27 29 32 30 32 -26 0 c-18 0 -29 7 -33 21
-4 12 -10 17 -14 11 -4 -7 -12 -6 -23 2 -10 7 -14 17 -10 21 4 4 -3 2 -16 -4
-12 -7 -28 -9 -34 -5 -6 4 -8 3 -5 -3 4 -6 -6 -15 -21 -22 -25 -10 -26 -10 -8
4 16 12 18 19 8 40 -6 14 -20 25 -29 24 -16 0 -15 -2 2 -9 19 -8 18 -11 -5
-14 -6 0 -15 -8 -20 -16 -12 -19 -12 -13 -1 27 9 31 2 37 -25 20 -12 -7 -38
16 -28 25 2 3 -2 8 -11 12 -9 3 -13 2 -10 -4 3 -6 2 -10 -4 -10 -6 0 -8 -12
-4 -32 5 -23 3 -29 -6 -24 -7 5 -10 15 -6 24 3 9 3 13 -1 9 -4 -4 -13 -2 -21
4 -10 9 -13 8 -13 -1 0 -9 -5 -8 -18 3 -19 18 -26 51 -9 40 6 -3 7 -1 3 5 -3
5 0 13 6 16 7 3 3 3 -9 1 -12 -3 -24 -1 -28 5 -8 13 -25 13 -25 -1z m197 -91
c-3 -8 -6 -5 -6 6 -1 11 2 17 5 13 3 -3 4 -12 1 -19z m-17 -10 c0 -4 -6 -8
-14 -8 -8 0 -17 4 -20 8 -2 4 4 8 15 8 10 0 19 -4 19 -8z m156 -42 c9 -9 10
-17 4 -21 -5 -3 -10 -1 -10 4 0 6 -5 11 -11 11 -5 0 -7 -5 -3 -12 4 -7 3 -8
-4 -4 -6 4 -9 13 -5 21 7 19 11 19 29 1z m44 -36 c6 -11 8 -20 6 -20 -3 0 -10
9 -16 20 -6 11 -8 20 -6 20 3 0 10 -9 16 -20z m205 -130 c18 -3 17 -8 -5 -20
-18 -10 -21 -9 -15 1 6 8 4 11 -6 7 -10 -4 -15 1 -15 12 0 13 4 16 16 10 8 -4
20 -9 25 -10z"/>
<path d="M3627 1125 c-13 -10 -15 -14 -5 -17 17 -6 48 2 48 12 0 15 -26 18
-43 5z"/>
<path d="M4268 833 c7 -3 16 -2 19 1 4 3 -2 6 -13 5 -11 0 -14 -3 -6 -6z"/>
<path d="M4337 803 c-3 -5 5 -8 18 -8 13 0 21 3 18 8 -2 4 -10 7 -18 7 -8 0
-16 -3 -18 -7z"/>
<path d="M4200 770 c0 -5 5 -10 10 -10 6 0 10 5 10 10 0 6 -4 10 -10 10 -5 0
-10 -4 -10 -10z"/>
<path d="M4373 757 c0 -8 6 -14 14 -14 9 0 10 4 2 14 -6 7 -12 13 -14 13 -1 0
-2 -6 -2 -13z"/>
<path d="M4430 754 c0 -9 -5 -12 -12 -8 -7 4 -8 3 -4 -4 9 -16 36 -3 29 14 -7
18 -13 18 -13 -2z"/>
<path d="M4317 719 c7 -7 15 -10 18 -7 3 3 -2 9 -12 12 -14 6 -15 5 -6 -5z"/>
<path d="M4524 715 c10 -8 23 -12 28 -9 14 9 -2 24 -25 24 -21 -1 -21 -1 -3
-15z"/>
<path d="M4392 686 c7 -8 15 -12 17 -11 5 6 -10 25 -20 25 -5 0 -4 -6 3 -14z"/>
<path d="M4690 646 c14 -8 27 -12 29 -10 6 6 -1 11 -29 18 l-25 7 25 -15z"/>
<path d="M4555 630 c-3 -6 1 -7 9 -4 18 7 21 14 7 14 -6 0 -13 -4 -16 -10z"/>
<path d="M4603 619 c9 -6 14 -15 11 -21 -4 -7 -2 -8 5 -4 14 9 -3 36 -23 36
-6 0 -3 -5 7 -11z"/>
<path d="M4665 600 c-3 -6 1 -7 9 -4 18 7 21 14 7 14 -6 0 -13 -4 -16 -10z"/>
<path d="M4650 575 c0 -2 6 -8 13 -14 10 -8 14 -7 14 2 0 8 -6 14 -14 14 -7 0
-13 -1 -13 -2z"/>
<path d="M4873 549 c-17 -17 -4 -39 21 -38 20 0 20 1 -3 10 -19 8 -21 12 -11
24 15 17 9 20 -7 4z"/>
<path d="M5015 540 c-3 -5 0 -10 7 -10 8 0 6 -6 -5 -17 -16 -16 -19 -16 -27
-3 -5 8 -10 12 -10 7 0 -4 -12 0 -27 10 -23 14 -26 15 -16 2 7 -9 9 -20 5 -24
-4 -5 1 -5 10 -2 19 7 43 -17 33 -33 -5 -8 -12 -7 -23 3 -23 20 -82 28 -82 10
0 -7 11 -13 25 -13 14 0 25 -4 25 -8 0 -5 6 -9 13 -10 22 -2 41 -8 62 -19 11
-6 28 -9 37 -8 9 2 22 -3 29 -11 6 -7 63 -30 128 -50 203 -64 241 -73 241 -61
0 6 6 2 14 -9 15 -19 15 -19 31 1 9 11 14 14 10 8 -3 -7 -1 -13 6 -13 7 0 21
-8 32 -17 13 -11 17 -13 12 -4 -6 11 -2 10 16 -2 29 -21 36 -21 36 -2 0 8 -5
15 -12 15 -6 0 -11 9 -12 20 -1 11 1 19 5 19 4 -1 18 -1 32 0 18 1 21 4 11 10
-15 9 -25 9 -54 -4 -14 -6 -15 -10 -6 -21 9 -11 8 -14 -6 -14 -13 0 -16 6 -13
24 4 22 3 23 -23 16 -18 -6 -31 -5 -35 2 -4 6 -2 8 4 4 6 -3 17 0 24 8 8 7 26
12 41 11 15 -2 29 1 33 6 5 8 -1 10 -43 12 -10 1 -23 8 -29 15 -5 8 -34 23
-64 33 -60 21 -72 23 -50 9 10 -7 11 -10 2 -10 -7 0 -15 7 -19 16 -3 8 -12 13
-19 10 -7 -3 -16 -1 -19 5 -4 5 -11 7 -16 4 -5 -4 -9 -1 -9 5 0 6 -6 10 -12 8
-7 -1 -23 4 -36 11 -13 7 -31 10 -39 6 -9 -3 -20 0 -25 7 -6 10 -10 10 -18 -2
-9 -13 -14 -7 -11 13 2 13 -36 7 -49 -8 -7 -8 -16 -12 -22 -9 -5 3 -5 11 2 19
8 10 3 15 -21 24 -39 13 -49 14 -29 1 12 -7 12 -12 3 -21 -10 -10 -14 -6 -22
14 -11 29 -16 32 -26 17z m21 -42 c4 -7 3 -8 -5 -4 -7 4 -15 -2 -20 -16 -6
-14 -10 -17 -10 -7 -1 8 4 20 11 27 15 15 15 15 24 0z m15 -35 c13 -17 13 -17
-6 -3 -11 8 -22 16 -24 17 -2 2 0 3 6 3 6 0 17 -8 24 -17z m37 -38 c-3 -3 -9
2 -12 12 -6 14 -5 15 5 6 7 -7 10 -15 7 -18z m362 -20 c0 -2 -6 -5 -13 -8 -8
-3 -14 1 -14 8 0 7 6 11 14 8 7 -3 13 -6 13 -8z m64 -30 c3 -10 -1 -15 -13
-15 -10 0 -21 -3 -25 -7 -10 -11 -37 -12 -30 -2 3 5 9 7 14 4 5 -3 11 -1 15 5
3 5 -1 10 -10 10 -9 0 -13 5 -10 10 10 15 52 12 59 -5z m-41 -60 c4 -8 2 -17
-3 -20 -6 -4 -10 3 -10 14 0 25 6 27 13 6z"/>
<path d="M4965 480 c3 -5 8 -10 11 -10 2 0 4 5 4 10 0 6 -5 10 -11 10 -5 0 -7
-4 -4 -10z"/>
<path d="M5765 320 c27 -12 43 -12 25 0 -8 5 -22 9 -30 9 -10 0 -8 -3 5 -9z"/>
<path d="M5810 300 c0 -5 7 -10 15 -10 8 0 15 5 15 10 0 6 -7 10 -15 10 -8 0
-15 -4 -15 -10z"/>
<path d="M5620 280 c0 -5 3 -10 8 -11 4 0 15 -2 25 -4 9 -2 15 1 11 6 -3 5
-10 7 -15 4 -5 -4 -9 -1 -9 4 0 6 -4 11 -10 11 -5 0 -10 -4 -10 -10z"/>
<path d="M5700 280 c0 -5 5 -10 11 -10 5 0 7 5 4 10 -3 6 -8 10 -11 10 -2 0
-4 -4 -4 -10z"/>
<path d="M6090 261 c0 -11 31 -24 39 -16 3 3 -1 10 -9 15 -19 12 -30 12 -30 1z"/>
<path d="M5617 249 c7 -7 15 -10 18 -7 3 3 -2 9 -12 12 -14 6 -15 5 -6 -5z"/>
<path d="M5680 251 c0 -8 41 -23 47 -17 2 1 -8 8 -22 14 -14 6 -25 8 -25 3z"/>
<path d="M5815 239 c-4 -6 -5 -12 -2 -15 2 -3 7 2 10 11 7 17 1 20 -8 4z"/>
<path d="M6213 125 c0 -8 4 -12 9 -9 5 3 6 10 3 15 -9 13 -12 11 -12 -6z"/>
</g>
</svg>
